# xmcd
#
# Track frame offsets:
#	150
#	13271
#	33583
#	54378
#	68082
#	84388
#	109248
#	129868
#	149905
#
# Disc length: 2866 seconds
#
# Revision: 1
# Processed by: cddbd v1.5.1PL0 Copyright (c) Steve Scherf et al.
# Submitted via: EasyCDDAExtractor 7.0.9.1
#
DISCID=7d0b3009
DTITLE=the summer of mars - glaciers
DYEAR=2005
DGENRE=americana
TTITLE0=the summer of mars
TTITLE1=legs
TTITLE2=this is a fuse
TTITLE3=glaciers
TTITLE4=step right up and meet the lame
TTITLE5=what i want - what you need
TTITLE6=the comfort of your love
TTITLE7=ship sinking
TTITLE8=veronika
EXTD=
EXTT0=
EXTT1=
EXTT2=
EXTT3=
EXTT4=
EXTT5=
EXTT6=
EXTT7=
EXTT8=
PLAYORDER=
